<?xml version="1.0" encoding="utf-8"?>
<!-- Generator: Adobe Illustrator 16.0.0, SVG Export Plug-In . SVG Version: 6.00 Build 0)  -->
<!DOCTYPE svg PUBLIC "-//W3C//DTD SVG 1.1//EN" "http://www.w3.org/Graphics/SVG/1.1/DTD/svg11.dtd">
<svg version="1.1" xmlns="http://www.w3.org/2000/svg" xmlns:xlink="http://www.w3.org/1999/xlink" x="0px" y="0px" width="16px"
	 height="16px" viewBox="0 0 16 16" enable-background="new 0 0 16 16" xml:space="preserve">
<g id="Layer_6">
</g>
<g id="Bone_Base">
</g>
<g id="Layer_5">
</g>
<g id="Layer_3">
</g>
<g id="Layer_3_copy">
	<g>
		<polygon fill="#FFFFFF" points="13,11 12,11 12,10 11,10 11,9 10,9 10,10 9,10 9,11 10,11 10,12 11,12 11,13 11,14 12,14 13,14 
			13,13 14,13 14,12 14,11 		"/>
		<polygon fill="#DDEEFF" points="13,12 12,12 12,13 11,13 11,14 12,14 13,14 13,13 14,13 14,12 		"/>
		<polygon fill="#840F00" points="11,8 11,7 11,6 11,5 10,5 10,3 9,3 9,2 8,2 7,2 7,1 6,1 5,1 4,1 4,2 3,2 2,2 2,3 1,3 1,8 2,8 2,9 
			3,9 3,10 4,10 4,9.999 5,9.999 5,10 5,11 6,11 7,11 8,11 8,12 9,12 9,11 9,10 10,10 10,9 11,9 12,9 12,8 		"/>
		<polygon fill="#AA3F00" points="8,3 8,2 7,2 7,1 6,1 5,1 4,1 4,2 3,2 3,3 1,3 1,8 2,8 2,9 3,9 4,9 4,9.999 5,9.999 5,10 6,10 
			7,10 7,11 8,11 8,10 9,10 9,9 9,9 9,9 10,9 10,8 10,8 10,3 		"/>
		<rect x="5" y="10" fill="#840F00" width="1" height="1"/>
	</g>
</g>
</svg>
