<?xml version="1.0" encoding="utf-8"?>
<!-- Generator: Adobe Illustrator 16.0.0, SVG Export Plug-In . SVG Version: 6.00 Build 0)  -->
<!DOCTYPE svg PUBLIC "-//W3C//DTD SVG 1.1//EN" "http://www.w3.org/Graphics/SVG/1.1/DTD/svg11.dtd">
<svg version="1.1" id="Layer_2" xmlns="http://www.w3.org/2000/svg" xmlns:xlink="http://www.w3.org/1999/xlink" x="0px" y="0px"
	 width="69.991px" height="139.982px" viewBox="0 0 69.991 139.982" enable-background="new 0 0 69.991 139.982"
	 xml:space="preserve">
<g>
	<polygon fill="#D01800" points="64,37 64,32 53,32 53,26.167 48,26.167 48,21 43,21 43,16 48,16 48,10 59,10 59,5 53,5 53,0 
		37.084,0 37.084,5 27.167,5 27.167,10 21,10 21,16 16,16 16,21 11,21 11,26.167 11,32 5,32 5,37 0,37 0,139.982 69.991,139.982 
		69.991,37 	"/>
	<rect x="59" y="10" fill="#D01800" width="5" height="6"/>
</g>
</svg>
