<?xml version="1.0" encoding="utf-8"?>
<!-- Generator: Adobe Illustrator 16.0.0, SVG Export Plug-In . SVG Version: 6.00 Build 0)  -->
<!DOCTYPE svg PUBLIC "-//W3C//DTD SVG 1.1//EN" "http://www.w3.org/Graphics/SVG/1.1/DTD/svg11.dtd">
<svg version="1.1" xmlns="http://www.w3.org/2000/svg" xmlns:xlink="http://www.w3.org/1999/xlink" x="0px" y="0px" width="57px"
	 height="633px" viewBox="0 0 57 633" enable-background="new 0 0 57 633" xml:space="preserve">
<g id="Layer_3">
	<polygon fill="#818181" points="51.993,5.04 51.993,69.04 40.993,69.04 40.993,0.04 35.993,0.04 35.993,69.04 24.993,69.04 
		24.993,0.04 19.993,0.04 19.993,69.04 8.743,69.04 8.743,5.04 3.993,5.04 3.993,95.79 8.743,95.79 8.743,101.04 24.993,101.04 
		24.993,531.79 8.993,531.79 8.993,537.04 3.993,537.04 3.993,563.79 3.993,627.79 8.993,627.79 8.993,563.79 19.993,563.79 
		19.993,632.79 24.993,632.79 24.993,563.79 35.993,563.79 35.993,632.79 40.993,632.79 40.993,563.79 52.243,563.79 52.243,627.79 
		56.993,627.79 56.993,537.04 52.243,537.04 52.243,531.79 35.993,531.79 35.993,101.04 51.993,101.04 51.993,95.79 56.993,95.79 
		56.993,69.04 56.993,5.04 	"/>
</g>
<g id="Fork">
	<polygon fill="#DDEEFF" points="48,5.04 48,69.04 37,69.04 37,0.04 32,0.04 32,69.04 21,69.04 21,0.04 16,0.04 16,69.04 
		4.75,69.04 4.75,5.04 0,5.04 0,95.79 4.75,95.79 4.75,101.04 21,101.04 21,531.79 5,531.79 5,537.04 0,537.04 0,563.79 0,627.79 
		5,627.79 5,563.79 16,563.79 16,632.79 21,632.79 21,563.79 32,563.79 32,632.79 37,632.79 37,563.79 48.25,563.79 48.25,627.79 
		53,627.79 53,537.04 48.25,537.04 48.25,531.79 32,531.79 32,101.04 48,101.04 48,95.79 53,95.79 53,69.04 53,5.04 	"/>
</g>
</svg>
